<svg xmlns="http://www.w3.org/2000/svg" width="810" viewBox="0 0 810 810" height="810" version="1.0"><path fill="#EEB300" d="M 781.3125 429.636719 L 735.75 477.898438 C 734.742188 478.9375 733.804688 480.035156 732.9375 481.191406 C 732.074219 482.351562 731.285156 483.558594 730.574219 484.816406 C 729.863281 486.078125 729.234375 487.375 728.691406 488.714844 C 728.148438 490.054688 727.691406 491.425781 727.324219 492.824219 C 726.953125 494.222656 726.679688 495.636719 726.492188 497.074219 C 726.304688 498.507812 726.210938 499.945312 726.210938 501.390625 C 726.210938 502.839844 726.300781 504.277344 726.488281 505.710938 C 726.671875 507.148438 726.945312 508.5625 727.3125 509.960938 L 742.5 573.75 C 742.792969 574.820312 743.03125 575.90625 743.214844 577.003906 C 743.402344 578.097656 743.53125 579.199219 743.609375 580.308594 C 743.683594 581.417969 743.707031 582.527344 743.671875 583.636719 C 743.640625 584.75 743.550781 585.855469 743.410156 586.957031 C 743.265625 588.058594 743.070312 589.152344 742.820312 590.234375 C 742.570312 591.316406 742.265625 592.386719 741.910156 593.4375 C 741.554688 594.492188 741.148438 595.523438 740.6875 596.535156 C 740.230469 597.550781 739.722656 598.535156 739.167969 599.5 C 738.613281 600.460938 738.011719 601.394531 737.363281 602.296875 C 736.714844 603.199219 736.023438 604.070312 735.292969 604.902344 C 734.558594 605.738281 733.785156 606.535156 732.972656 607.292969 C 732.160156 608.050781 731.3125 608.769531 730.429688 609.445312 C 729.546875 610.117188 728.632812 610.75 727.6875 611.332031 C 726.742188 611.917969 725.769531 612.453125 724.773438 612.941406 C 723.773438 613.429688 722.753906 613.867188 721.710938 614.257812 C 720.671875 614.644531 719.613281 614.980469 718.539062 615.261719 L 655.085938 634.164062 C 653.679688 634.546875 652.304688 635.023438 650.960938 635.585938 C 649.617188 636.152344 648.3125 636.800781 647.050781 637.53125 C 645.789062 638.265625 644.582031 639.074219 643.425781 639.964844 C 642.269531 640.855469 641.175781 641.816406 640.144531 642.847656 C 639.113281 643.878906 638.15625 644.972656 637.265625 646.125 C 636.375 647.28125 635.566406 648.492188 634.832031 649.75 C 634.097656 651.011719 633.449219 652.316406 632.886719 653.660156 C 632.324219 655.003906 631.847656 656.382812 631.460938 657.789062 L 612.5625 721.238281 C 612.28125 722.3125 611.945312 723.371094 611.554688 724.410156 C 611.167969 725.453125 610.730469 726.472656 610.242188 727.472656 C 609.753906 728.46875 609.21875 729.441406 608.632812 730.386719 C 608.046875 731.332031 607.417969 732.246094 606.742188 733.128906 C 606.070312 734.011719 605.351562 734.859375 604.59375 735.671875 C 603.835938 736.484375 603.039062 737.257812 602.203125 737.992188 C 601.371094 738.722656 600.5 739.414062 599.597656 740.0625 C 598.695312 740.710938 597.761719 741.3125 596.800781 741.867188 C 595.835938 742.421875 594.847656 742.929688 593.835938 743.386719 C 592.824219 743.847656 591.792969 744.253906 590.738281 744.609375 C 589.683594 744.964844 588.617188 745.269531 587.535156 745.519531 C 586.453125 745.769531 585.359375 745.964844 584.257812 746.109375 C 583.15625 746.25 582.050781 746.339844 580.9375 746.371094 C 579.828125 746.40625 578.71875 746.386719 577.609375 746.308594 C 576.5 746.230469 575.398438 746.101562 574.300781 745.917969 C 573.207031 745.730469 572.121094 745.492188 571.050781 745.199219 L 506.25 730.351562 C 504.851562 729.984375 503.433594 729.707031 502 729.523438 C 500.566406 729.339844 499.125 729.25 497.679688 729.25 C 496.234375 729.25 494.792969 729.34375 493.359375 729.53125 C 491.925781 729.714844 490.507812 729.992188 489.109375 730.359375 C 487.710938 730.726562 486.34375 731.183594 485.003906 731.726562 C 483.664062 732.273438 482.363281 732.898438 481.105469 733.609375 C 479.847656 734.320312 478.636719 735.109375 477.480469 735.976562 C 476.324219 736.84375 475.226562 737.78125 474.1875 738.789062 L 425.925781 784.351562 C 425.140625 785.140625 424.324219 785.886719 423.464844 786.59375 C 422.609375 787.304688 421.722656 787.96875 420.800781 788.585938 C 419.878906 789.207031 418.925781 789.78125 417.949219 790.308594 C 416.96875 790.832031 415.96875 791.308594 414.941406 791.738281 C 413.917969 792.164062 412.871094 792.539062 411.808594 792.863281 C 410.746094 793.1875 409.671875 793.460938 408.582031 793.679688 C 407.492188 793.894531 406.394531 794.058594 405.289062 794.167969 C 404.183594 794.277344 403.074219 794.332031 401.960938 794.332031 C 400.851562 794.332031 399.742188 794.277344 398.636719 794.167969 C 397.53125 794.058594 396.433594 793.894531 395.34375 793.679688 C 394.253906 793.460938 393.179688 793.1875 392.117188 792.863281 C 391.054688 792.539062 390.007812 792.164062 388.984375 791.738281 C 387.957031 791.308594 386.957031 790.832031 385.976562 790.308594 C 384.996094 789.78125 384.046875 789.207031 383.125 788.585938 C 382.203125 787.96875 381.316406 787.304688 380.457031 786.59375 C 379.601562 785.886719 378.78125 785.140625 378 784.351562 L 330.75 739.125 C 329.710938 738.117188 328.613281 737.179688 327.457031 736.3125 C 326.300781 735.449219 325.089844 734.660156 323.832031 733.949219 C 322.574219 733.238281 321.273438 732.609375 319.933594 732.066406 C 318.59375 731.523438 317.226562 731.066406 315.828125 730.699219 C 314.429688 730.328125 313.011719 730.054688 311.578125 729.867188 C 310.144531 729.679688 308.703125 729.585938 307.257812 729.585938 C 305.8125 729.585938 304.371094 729.675781 302.9375 729.863281 C 301.503906 730.046875 300.085938 730.320312 298.6875 730.6875 L 234.226562 745.875 C 233.152344 746.167969 232.070312 746.40625 230.972656 746.589844 C 229.878906 746.777344 228.773438 746.90625 227.667969 746.984375 C 226.558594 747.058594 225.449219 747.082031 224.335938 747.046875 C 223.226562 747.015625 222.121094 746.925781 221.015625 746.785156 C 219.914062 746.640625 218.824219 746.445312 217.738281 746.195312 C 216.65625 745.945312 215.589844 745.640625 214.535156 745.285156 C 213.484375 744.929688 212.453125 744.519531 211.4375 744.0625 C 210.425781 743.605469 209.4375 743.097656 208.476562 742.542969 C 207.511719 741.988281 206.582031 741.386719 205.679688 740.738281 C 204.773438 740.089844 203.90625 739.398438 203.070312 738.667969 C 202.234375 737.933594 201.4375 737.160156 200.679688 736.347656 C 199.921875 735.535156 199.207031 734.6875 198.53125 733.804688 C 197.855469 732.921875 197.226562 732.007812 196.640625 731.0625 C 196.058594 730.117188 195.519531 729.144531 195.03125 728.144531 C 194.542969 727.148438 194.105469 726.128906 193.71875 725.085938 C 193.332031 724.046875 192.996094 722.988281 192.710938 721.914062 L 173.8125 658.125 C 173.425781 656.71875 172.953125 655.34375 172.386719 653.996094 C 171.824219 652.652344 171.175781 651.351562 170.441406 650.089844 C 169.710938 648.828125 168.898438 647.621094 168.007812 646.464844 C 167.121094 645.308594 166.160156 644.214844 165.128906 643.183594 C 164.097656 642.152344 163.003906 641.191406 161.847656 640.304688 C 160.691406 639.414062 159.484375 638.601562 158.222656 637.871094 C 156.960938 637.136719 155.660156 636.488281 154.316406 635.925781 C 152.96875 635.359375 151.59375 634.886719 150.1875 634.5 L 86.738281 615.601562 C 85.652344 615.316406 84.585938 614.980469 83.535156 614.59375 C 82.484375 614.203125 81.457031 613.765625 80.449219 613.273438 C 79.445312 612.78125 78.464844 612.242188 77.511719 611.652344 C 76.558594 611.066406 75.636719 610.429688 74.746094 609.75 C 73.859375 609.070312 73.003906 608.347656 72.1875 607.582031 C 71.367188 606.816406 70.589844 606.011719 69.851562 605.167969 C 69.117188 604.328125 68.421875 603.449219 67.769531 602.535156 C 67.121094 601.625 66.515625 600.683594 65.960938 599.710938 C 65.402344 598.738281 64.898438 597.742188 64.441406 596.71875 C 63.984375 595.695312 63.578125 594.65625 63.222656 593.589844 C 62.871094 592.527344 62.570312 591.449219 62.324219 590.359375 C 62.078125 589.265625 61.886719 588.164062 61.75 587.050781 C 61.613281 585.941406 61.535156 584.824219 61.507812 583.703125 C 61.484375 582.585938 61.511719 581.464844 61.597656 580.351562 C 61.683594 579.234375 61.828125 578.125 62.023438 577.019531 C 62.21875 575.917969 62.46875 574.828125 62.773438 573.75 L 77.960938 509.289062 C 78.328125 507.886719 78.605469 506.472656 78.789062 505.039062 C 78.972656 503.605469 79.0625 502.164062 79.0625 500.71875 C 79.0625 499.269531 78.96875 497.832031 78.78125 496.398438 C 78.597656 494.964844 78.320312 493.546875 77.953125 492.148438 C 77.585938 490.75 77.128906 489.382812 76.585938 488.042969 C 76.039062 486.703125 75.414062 485.402344 74.703125 484.144531 C 73.992188 482.882812 73.203125 481.675781 72.335938 480.519531 C 71.46875 479.359375 70.53125 478.261719 69.523438 477.226562 L 24.300781 429.636719 C 23.511719 428.855469 22.761719 428.035156 22.054688 427.179688 C 21.347656 426.324219 20.683594 425.433594 20.0625 424.511719 C 19.441406 423.589844 18.867188 422.640625 18.34375 421.660156 C 17.816406 420.683594 17.339844 419.679688 16.914062 418.65625 C 16.484375 417.628906 16.109375 416.585938 15.785156 415.523438 C 15.460938 414.457031 15.191406 413.382812 14.972656 412.292969 C 14.753906 411.203125 14.589844 410.105469 14.480469 409 C 14.371094 407.894531 14.316406 406.785156 14.316406 405.675781 C 14.316406 404.5625 14.371094 403.457031 14.480469 402.351562 C 14.589844 401.242188 14.753906 400.144531 14.972656 399.058594 C 15.191406 397.96875 15.460938 396.890625 15.785156 395.828125 C 16.109375 394.765625 16.484375 393.722656 16.914062 392.695312 C 17.339844 391.667969 17.816406 390.667969 18.34375 389.6875 C 18.867188 388.710938 19.441406 387.761719 20.0625 386.839844 C 20.683594 385.917969 21.347656 385.027344 22.054688 384.171875 C 22.761719 383.3125 23.511719 382.496094 24.300781 381.710938 L 69.523438 333.789062 C 70.53125 332.75 71.46875 331.652344 72.335938 330.496094 C 73.203125 329.335938 73.992188 328.128906 74.703125 326.871094 C 75.414062 325.609375 76.039062 324.3125 76.585938 322.972656 C 77.128906 321.632812 77.585938 320.261719 77.953125 318.863281 C 78.320312 317.464844 78.597656 316.050781 78.78125 314.613281 C 78.96875 313.179688 79.0625 311.742188 79.0625 310.296875 C 79.0625 308.847656 78.972656 307.410156 78.789062 305.976562 C 78.605469 304.539062 78.328125 303.125 77.960938 301.726562 L 62.773438 236.25 C 62.523438 235.1875 62.320312 234.117188 62.171875 233.039062 C 62.019531 231.957031 61.921875 230.871094 61.878906 229.78125 C 61.835938 228.691406 61.84375 227.605469 61.902344 226.515625 C 61.964844 225.425781 62.078125 224.34375 62.246094 223.265625 C 62.410156 222.1875 62.628906 221.117188 62.898438 220.0625 C 63.167969 219.003906 63.488281 217.964844 63.859375 216.9375 C 64.230469 215.914062 64.648438 214.90625 65.117188 213.921875 C 65.585938 212.9375 66.097656 211.976562 66.660156 211.042969 C 67.222656 210.105469 67.828125 209.199219 68.476562 208.324219 C 69.125 207.445312 69.8125 206.605469 70.546875 205.792969 C 71.277344 204.984375 72.042969 204.210938 72.851562 203.476562 C 73.65625 202.742188 74.496094 202.046875 75.367188 201.394531 C 76.242188 200.738281 77.144531 200.128906 78.074219 199.5625 C 79.007812 198.996094 79.964844 198.476562 80.945312 198.003906 C 81.929688 197.527344 82.933594 197.105469 83.957031 196.726562 C 84.980469 196.351562 86.019531 196.027344 87.074219 195.75 L 150.523438 176.851562 C 151.929688 176.464844 153.308594 175.988281 154.652344 175.425781 C 155.996094 174.863281 157.300781 174.214844 158.5625 173.480469 C 159.820312 172.746094 161.03125 171.9375 162.1875 171.046875 C 163.339844 170.15625 164.433594 169.195312 165.464844 168.167969 C 166.496094 167.136719 167.457031 166.042969 168.347656 164.886719 C 169.238281 163.730469 170.046875 162.523438 170.78125 161.261719 C 171.511719 160 172.160156 158.695312 172.726562 157.351562 C 173.289062 156.007812 173.765625 154.632812 174.148438 153.226562 L 193.050781 89.773438 C 193.378906 88.746094 193.753906 87.738281 194.175781 86.746094 C 194.601562 85.753906 195.074219 84.785156 195.589844 83.839844 C 196.105469 82.890625 196.667969 81.972656 197.273438 81.082031 C 197.878906 80.1875 198.527344 79.324219 199.214844 78.496094 C 199.902344 77.664062 200.628906 76.867188 201.390625 76.109375 C 202.15625 75.347656 202.957031 74.625 203.789062 73.9375 C 204.621094 73.253906 205.488281 72.613281 206.382812 72.011719 C 207.277344 71.410156 208.199219 70.851562 209.148438 70.339844 C 210.097656 69.824219 211.066406 69.359375 212.0625 68.9375 C 213.054688 68.519531 214.066406 68.148438 215.09375 67.824219 C 216.125 67.5 217.164062 67.226562 218.21875 67.003906 C 219.277344 66.78125 220.339844 66.609375 221.410156 66.488281 C 222.484375 66.367188 223.558594 66.296875 224.636719 66.277344 C 225.714844 66.257812 226.792969 66.292969 227.867188 66.378906 C 228.941406 66.460938 230.011719 66.597656 231.074219 66.785156 C 232.136719 66.972656 233.1875 67.210938 234.226562 67.5 L 298.6875 82.6875 C 300.085938 83.054688 301.503906 83.328125 302.9375 83.511719 C 304.371094 83.699219 305.8125 83.789062 307.257812 83.789062 C 308.703125 83.789062 310.144531 83.695312 311.578125 83.507812 C 313.011719 83.320312 314.429688 83.046875 315.828125 82.675781 C 317.226562 82.308594 318.59375 81.851562 319.933594 81.308594 C 321.273438 80.765625 322.574219 80.136719 323.832031 79.425781 C 325.089844 78.714844 326.300781 77.925781 327.457031 77.0625 C 328.613281 76.195312 329.710938 75.257812 330.75 74.25 L 379.011719 27.335938 C 379.796875 26.546875 380.613281 25.800781 381.472656 25.09375 C 382.328125 24.382812 383.214844 23.71875 384.136719 23.101562 C 385.058594 22.480469 386.011719 21.90625 386.988281 21.378906 C 387.96875 20.855469 388.96875 20.378906 389.996094 19.949219 C 391.019531 19.523438 392.066406 19.148438 393.128906 18.824219 C 394.191406 18.5 395.265625 18.226562 396.355469 18.007812 C 397.445312 17.792969 398.542969 17.628906 399.648438 17.519531 C 400.753906 17.410156 401.863281 17.355469 402.976562 17.355469 C 404.085938 17.355469 405.195312 17.410156 406.300781 17.519531 C 407.40625 17.628906 408.503906 17.792969 409.59375 18.007812 C 410.683594 18.226562 411.757812 18.5 412.820312 18.824219 C 413.882812 19.148438 414.929688 19.523438 415.953125 19.949219 C 416.980469 20.378906 417.980469 20.855469 418.960938 21.378906 C 419.9375 21.90625 420.890625 22.480469 421.8125 23.101562 C 422.734375 23.71875 423.621094 24.382812 424.480469 25.09375 C 425.335938 25.800781 426.15625 26.546875 426.9375 27.335938 L 475.199219 72.898438 C 476.238281 73.90625 477.335938 74.84375 478.492188 75.710938 C 479.652344 76.578125 480.859375 77.367188 482.117188 78.078125 C 483.378906 78.789062 484.675781 79.414062 486.015625 79.960938 C 487.355469 80.503906 488.726562 80.960938 490.125 81.328125 C 491.523438 81.695312 492.9375 81.972656 494.371094 82.15625 C 495.804688 82.34375 497.246094 82.4375 498.691406 82.4375 C 500.136719 82.4375 501.578125 82.347656 503.011719 82.164062 C 504.445312 81.980469 505.863281 81.703125 507.261719 81.335938 L 571.386719 67.5 C 572.460938 67.207031 573.542969 66.96875 574.640625 66.785156 C 575.734375 66.597656 576.835938 66.46875 577.945312 66.390625 C 579.054688 66.316406 580.164062 66.292969 581.277344 66.328125 C 582.386719 66.359375 583.492188 66.449219 584.59375 66.589844 C 585.699219 66.734375 586.789062 66.929688 587.871094 67.179688 C 588.957031 67.429688 590.023438 67.734375 591.074219 68.089844 C 592.128906 68.445312 593.160156 68.855469 594.171875 69.3125 C 595.1875 69.769531 596.175781 70.277344 597.136719 70.832031 C 598.097656 71.386719 599.03125 71.988281 599.933594 72.636719 C 600.835938 73.285156 601.707031 73.976562 602.542969 74.710938 C 603.375 75.441406 604.171875 76.214844 604.933594 77.027344 C 605.691406 77.839844 606.40625 78.6875 607.082031 79.570312 C 607.757812 80.453125 608.386719 81.367188 608.96875 82.3125 C 609.554688 83.257812 610.089844 84.230469 610.578125 85.230469 C 611.066406 86.226562 611.507812 87.246094 611.894531 88.289062 C 612.28125 89.328125 612.617188 90.386719 612.898438 91.460938 L 631.800781 154.914062 C 632.183594 156.320312 632.660156 157.695312 633.222656 159.039062 C 633.789062 160.382812 634.4375 161.6875 635.167969 162.949219 C 635.902344 164.210938 636.714844 165.417969 637.601562 166.574219 C 638.492188 167.730469 639.453125 168.824219 640.484375 169.855469 C 641.515625 170.882812 642.609375 171.84375 643.765625 172.734375 C 644.921875 173.625 646.128906 174.433594 647.390625 175.167969 C 648.648438 175.902344 649.953125 176.550781 651.296875 177.113281 C 652.644531 177.675781 654.019531 178.152344 655.425781 178.539062 L 718.875 197.4375 C 719.871094 197.730469 720.855469 198.066406 721.820312 198.453125 C 722.785156 198.835938 723.730469 199.261719 724.65625 199.734375 C 725.585938 200.203125 726.488281 200.714844 727.367188 201.269531 C 728.246094 201.824219 729.097656 202.417969 729.921875 203.050781 C 730.746094 203.683594 731.539062 204.351562 732.300781 205.058594 C 733.0625 205.765625 733.792969 206.503906 734.484375 207.277344 C 735.179688 208.050781 735.835938 208.855469 736.457031 209.691406 C 737.078125 210.523438 737.65625 211.386719 738.195312 212.273438 C 738.738281 213.160156 739.234375 214.070312 739.691406 215.003906 C 740.148438 215.9375 740.558594 216.890625 740.929688 217.863281 C 741.296875 218.835938 741.621094 219.820312 741.894531 220.824219 C 742.171875 221.824219 742.402344 222.835938 742.585938 223.859375 C 742.769531 224.882812 742.90625 225.910156 742.996094 226.945312 C 743.082031 227.980469 743.125 229.019531 743.117188 230.058594 C 743.109375 231.097656 743.054688 232.132812 742.953125 233.167969 C 742.847656 234.203125 742.699219 235.230469 742.5 236.25 L 727.3125 300.710938 C 726.945312 302.113281 726.671875 303.527344 726.488281 304.960938 C 726.300781 306.394531 726.210938 307.835938 726.210938 309.28125 C 726.210938 310.730469 726.304688 312.167969 726.492188 313.601562 C 726.679688 315.035156 726.953125 316.453125 727.324219 317.851562 C 727.691406 319.25 728.148438 320.617188 728.691406 321.957031 C 729.234375 323.296875 729.863281 324.597656 730.574219 325.855469 C 731.285156 327.117188 732.074219 328.324219 732.9375 329.480469 C 733.804688 330.640625 734.742188 331.738281 735.75 332.773438 L 781.3125 381.039062 C 782.125 381.824219 782.898438 382.648438 783.632812 383.507812 C 784.363281 384.371094 785.050781 385.269531 785.691406 386.203125 C 786.332031 387.132812 786.925781 388.09375 787.46875 389.085938 C 788.015625 390.078125 788.507812 391.09375 788.953125 392.136719 C 789.394531 393.175781 789.785156 394.238281 790.121094 395.316406 C 790.453125 396.398438 790.734375 397.492188 790.960938 398.601562 C 791.1875 399.710938 791.355469 400.828125 791.46875 401.953125 C 791.585938 403.078125 791.640625 404.207031 791.640625 405.335938 C 791.640625 406.46875 791.585938 407.597656 791.46875 408.722656 C 791.355469 409.847656 791.1875 410.964844 790.960938 412.074219 C 790.734375 413.183594 790.453125 414.277344 790.117188 415.355469 C 789.785156 416.4375 789.394531 417.5 788.953125 418.539062 C 788.507812 419.582031 788.015625 420.597656 787.472656 421.589844 C 786.925781 422.578125 786.332031 423.542969 785.691406 424.472656 C 785.050781 425.40625 784.363281 426.304688 783.632812 427.164062 C 782.898438 428.027344 782.125 428.851562 781.3125 429.636719 Z M 781.3125 429.636719"/><path fill="#FDD331" d="M 655.761719 405.675781 C 655.761719 409.816406 655.660156 413.957031 655.457031 418.09375 C 655.253906 422.234375 654.949219 426.363281 654.542969 430.484375 C 654.136719 434.609375 653.628906 438.71875 653.023438 442.816406 C 652.414062 446.914062 651.707031 450.996094 650.898438 455.058594 C 650.089844 459.121094 649.183594 463.160156 648.175781 467.179688 C 647.171875 471.199219 646.066406 475.1875 644.863281 479.152344 C 643.660156 483.117188 642.359375 487.050781 640.964844 490.949219 C 639.570312 494.851562 638.078125 498.714844 636.496094 502.542969 C 634.910156 506.367188 633.230469 510.15625 631.460938 513.898438 C 629.6875 517.644531 627.828125 521.34375 625.875 524.996094 C 623.921875 528.652344 621.878906 532.253906 619.75 535.808594 C 617.621094 539.359375 615.40625 542.859375 613.101562 546.304688 C 610.800781 549.75 608.417969 553.132812 605.949219 556.460938 C 603.480469 559.789062 600.933594 563.054688 598.304688 566.253906 C 595.675781 569.457031 592.972656 572.59375 590.191406 575.664062 C 587.410156 578.734375 584.554688 581.730469 581.625 584.660156 C 578.695312 587.589844 575.695312 590.445312 572.625 593.226562 C 569.554688 596.011719 566.421875 598.714844 563.21875 601.34375 C 560.015625 603.972656 556.75 606.519531 553.425781 608.988281 C 550.097656 611.453125 546.710938 613.839844 543.265625 616.140625 C 539.820312 618.441406 536.324219 620.65625 532.769531 622.789062 C 529.214844 624.917969 525.613281 626.957031 521.960938 628.910156 C 518.304688 630.863281 514.605469 632.726562 510.863281 634.496094 C 507.117188 636.269531 503.332031 637.945312 499.503906 639.53125 C 495.675781 641.117188 491.8125 642.609375 487.914062 644.003906 C 484.011719 645.398438 480.078125 646.699219 476.117188 647.902344 C 472.152344 649.101562 468.160156 650.207031 464.140625 651.214844 C 460.125 652.222656 456.082031 653.128906 452.019531 653.9375 C 447.957031 654.746094 443.875 655.453125 439.777344 656.058594 C 435.679688 656.667969 431.570312 657.175781 427.449219 657.582031 C 423.324219 657.988281 419.195312 658.292969 415.058594 658.496094 C 410.921875 658.699219 406.78125 658.800781 402.636719 658.800781 C 398.496094 658.800781 394.355469 658.699219 390.21875 658.496094 C 386.078125 658.292969 381.949219 657.988281 377.828125 657.582031 C 373.703125 657.175781 369.59375 656.667969 365.496094 656.058594 C 361.398438 655.453125 357.316406 654.746094 353.253906 653.9375 C 349.191406 653.128906 345.152344 652.21875 341.132812 651.214844 C 337.113281 650.207031 333.125 649.101562 329.160156 647.902344 C 325.195312 646.699219 321.261719 645.398438 317.363281 644.003906 C 313.460938 642.609375 309.597656 641.117188 305.769531 639.53125 C 301.945312 637.945312 298.15625 636.269531 294.414062 634.496094 C 290.667969 632.726562 286.96875 630.863281 283.316406 628.910156 C 279.660156 626.957031 276.058594 624.917969 272.503906 622.789062 C 268.953125 620.65625 265.453125 618.441406 262.007812 616.140625 C 258.5625 613.839844 255.179688 611.453125 251.851562 608.988281 C 248.523438 606.519531 245.257812 603.972656 242.058594 601.34375 C 238.855469 598.714844 235.71875 596.011719 232.648438 593.226562 C 229.578125 590.445312 226.582031 587.589844 223.652344 584.660156 C 220.722656 581.730469 217.867188 578.734375 215.085938 575.664062 C 212.300781 572.59375 209.597656 569.457031 206.96875 566.253906 C 204.339844 563.054688 201.792969 559.789062 199.324219 556.460938 C 196.859375 553.132812 194.472656 549.75 192.171875 546.304688 C 189.871094 542.859375 187.65625 539.359375 185.523438 535.808594 C 183.394531 532.253906 181.355469 528.652344 179.402344 524.996094 C 177.449219 521.34375 175.585938 517.644531 173.816406 513.898438 C 172.042969 510.15625 170.367188 506.367188 168.78125 502.542969 C 167.195312 498.714844 165.703125 494.851562 164.308594 490.949219 C 162.914062 487.050781 161.613281 483.117188 160.410156 479.152344 C 159.210938 475.1875 158.105469 471.199219 157.097656 467.179688 C 156.089844 463.160156 155.183594 459.121094 154.375 455.058594 C 153.566406 450.996094 152.859375 446.914062 152.253906 442.816406 C 151.644531 438.71875 151.136719 434.609375 150.730469 430.484375 C 150.324219 426.363281 150.019531 422.234375 149.816406 418.09375 C 149.613281 413.957031 149.511719 409.816406 149.511719 405.675781 C 149.511719 401.53125 149.613281 397.390625 149.816406 393.253906 C 150.019531 389.117188 150.324219 384.988281 150.730469 380.863281 C 151.136719 376.742188 151.644531 372.632812 152.253906 368.535156 C 152.859375 364.4375 153.566406 360.355469 154.375 356.292969 C 155.183594 352.230469 156.089844 348.1875 157.097656 344.171875 C 158.105469 340.152344 159.210938 336.160156 160.410156 332.195312 C 161.613281 328.234375 162.914062 324.300781 164.308594 320.398438 C 165.703125 316.5 167.195312 312.636719 168.78125 308.808594 C 170.367188 304.980469 172.042969 301.195312 173.816406 297.449219 C 175.585938 293.707031 177.449219 290.007812 179.402344 286.351562 C 181.355469 282.699219 183.394531 279.097656 185.523438 275.542969 C 187.65625 271.988281 189.871094 268.492188 192.171875 265.046875 C 194.472656 261.601562 196.859375 258.214844 199.324219 254.886719 C 201.792969 251.5625 204.339844 248.296875 206.96875 245.09375 C 209.597656 241.890625 212.300781 238.757812 215.085938 235.6875 C 217.867188 232.617188 220.722656 229.617188 223.652344 226.6875 C 226.582031 223.757812 229.578125 220.902344 232.648438 218.121094 C 235.71875 215.339844 238.855469 212.632812 242.058594 210.007812 C 245.257812 207.378906 248.523438 204.832031 251.851562 202.363281 C 255.179688 199.894531 258.5625 197.511719 262.007812 195.210938 C 265.453125 192.90625 268.953125 190.691406 272.503906 188.5625 C 276.058594 186.433594 279.660156 184.390625 283.316406 182.4375 C 286.96875 180.484375 290.667969 178.625 294.414062 176.851562 C 298.15625 175.082031 301.945312 173.402344 305.769531 171.816406 C 309.597656 170.234375 313.460938 168.742188 317.363281 167.347656 C 321.261719 165.949219 325.195312 164.652344 329.160156 163.449219 C 333.125 162.246094 337.113281 161.140625 341.132812 160.136719 C 345.152344 159.128906 349.191406 158.222656 353.253906 157.414062 C 357.316406 156.605469 361.398438 155.898438 365.496094 155.289062 C 369.59375 154.683594 373.703125 154.175781 377.828125 153.769531 C 381.949219 153.363281 386.078125 153.058594 390.21875 152.855469 C 394.355469 152.652344 398.496094 152.550781 402.636719 152.550781 C 406.78125 152.550781 410.921875 152.652344 415.058594 152.855469 C 419.195312 153.058594 423.324219 153.363281 427.449219 153.769531 C 431.570312 154.175781 435.679688 154.683594 439.777344 155.289062 C 443.875 155.898438 447.957031 156.605469 452.019531 157.414062 C 456.082031 158.222656 460.125 159.128906 464.140625 160.136719 C 468.160156 161.140625 472.152344 162.246094 476.117188 163.449219 C 480.078125 164.652344 484.011719 165.949219 487.914062 167.347656 C 491.8125 168.742188 495.675781 170.234375 499.503906 171.816406 C 503.332031 173.402344 507.117188 175.082031 510.863281 176.851562 C 514.605469 178.625 518.304688 180.484375 521.960938 182.4375 C 525.613281 184.390625 529.214844 186.433594 532.769531 188.5625 C 536.324219 190.691406 539.820312 192.90625 543.265625 195.210938 C 546.710938 197.511719 550.097656 199.894531 553.425781 202.363281 C 556.75 204.832031 560.015625 207.378906 563.21875 210.007812 C 566.421875 212.636719 569.554688 215.339844 572.625 218.121094 C 575.695312 220.902344 578.695312 223.757812 581.625 226.6875 C 584.554688 229.617188 587.410156 232.617188 590.191406 235.6875 C 592.972656 238.757812 595.675781 241.890625 598.304688 245.09375 C 600.933594 248.296875 603.480469 251.5625 605.949219 254.886719 C 608.417969 258.214844 610.800781 261.601562 613.101562 265.046875 C 615.40625 268.492188 617.621094 271.988281 619.75 275.542969 C 621.878906 279.097656 623.921875 282.699219 625.875 286.351562 C 627.828125 290.007812 629.6875 293.707031 631.460938 297.449219 C 633.230469 301.195312 634.910156 304.980469 636.496094 308.808594 C 638.078125 312.636719 639.570312 316.5 640.964844 320.398438 C 642.359375 324.300781 643.660156 328.234375 644.863281 332.195312 C 646.066406 336.160156 647.171875 340.152344 648.175781 344.171875 C 649.183594 348.1875 650.089844 352.230469 650.898438 356.292969 C 651.707031 360.355469 652.414062 364.4375 653.023438 368.535156 C 653.628906 372.632812 654.136719 376.742188 654.542969 380.863281 C 654.949219 384.988281 655.253906 389.117188 655.457031 393.253906 C 655.660156 397.390625 655.761719 401.53125 655.761719 405.675781 Z M 655.761719 405.675781"/><path d="M 402.636719 135 C 398.21875 135 393.800781 135.109375 389.390625 135.324219 C 384.976562 135.542969 380.570312 135.867188 376.171875 136.300781 C 371.777344 136.734375 367.390625 137.273438 363.019531 137.921875 C 358.648438 138.570312 354.296875 139.324219 349.964844 140.1875 C 345.628906 141.050781 341.320312 142.019531 337.03125 143.089844 C 332.746094 144.164062 328.488281 145.34375 324.261719 146.625 C 320.03125 147.910156 315.835938 149.292969 311.675781 150.78125 C 307.515625 152.273438 303.394531 153.863281 299.3125 155.550781 C 295.230469 157.242188 291.191406 159.035156 287.199219 160.921875 C 283.203125 162.8125 279.257812 164.796875 275.359375 166.882812 C 271.464844 168.964844 267.621094 171.140625 263.828125 173.414062 C 260.039062 175.683594 256.308594 178.046875 252.632812 180.503906 C 248.960938 182.957031 245.347656 185.5 241.796875 188.132812 C 238.25 190.765625 234.765625 193.484375 231.351562 196.289062 C 227.9375 199.089844 224.589844 201.976562 221.316406 204.941406 C 218.042969 207.910156 214.84375 210.957031 211.71875 214.082031 C 208.59375 217.207031 205.546875 220.40625 202.582031 223.679688 C 199.613281 226.953125 196.726562 230.296875 193.925781 233.714844 C 191.121094 237.128906 188.402344 240.613281 185.769531 244.160156 C 183.140625 247.710938 180.59375 251.320312 178.140625 254.996094 C 175.6875 258.671875 173.324219 262.402344 171.050781 266.191406 C 168.777344 269.980469 166.601562 273.824219 164.519531 277.722656 C 162.4375 281.621094 160.449219 285.566406 158.558594 289.558594 C 156.671875 293.554688 154.882812 297.59375 153.191406 301.675781 C 151.5 305.757812 149.910156 309.878906 148.421875 314.039062 C 146.933594 318.199219 145.546875 322.394531 144.261719 326.625 C 142.980469 330.851562 141.800781 335.109375 140.730469 339.394531 C 139.65625 343.683594 138.6875 347.992188 137.824219 352.324219 C 136.964844 356.660156 136.207031 361.011719 135.558594 365.382812 C 134.910156 369.753906 134.371094 374.136719 133.9375 378.535156 C 133.503906 382.933594 133.179688 387.339844 132.960938 391.75 C 132.746094 396.164062 132.636719 400.582031 132.636719 405 C 132.636719 409.417969 132.746094 413.835938 132.960938 418.25 C 133.179688 422.660156 133.503906 427.066406 133.9375 431.464844 C 134.371094 435.863281 134.910156 440.246094 135.558594 444.617188 C 136.207031 448.988281 136.964844 453.339844 137.824219 457.675781 C 138.6875 462.007812 139.65625 466.316406 140.730469 470.605469 C 141.800781 474.890625 142.980469 479.148438 144.261719 483.375 C 145.546875 487.605469 146.933594 491.800781 148.421875 495.960938 C 149.910156 500.121094 151.5 504.242188 153.191406 508.324219 C 154.882812 512.40625 156.671875 516.445312 158.558594 520.441406 C 160.449219 524.433594 162.4375 528.378906 164.519531 532.277344 C 166.601562 536.175781 168.777344 540.015625 171.050781 543.808594 C 173.324219 547.597656 175.6875 551.328125 178.140625 555.003906 C 180.59375 558.679688 183.140625 562.289062 185.769531 565.839844 C 188.402344 569.386719 191.121094 572.871094 193.925781 576.285156 C 196.726562 579.703125 199.613281 583.046875 202.582031 586.320312 C 205.546875 589.59375 208.59375 592.792969 211.71875 595.917969 C 214.84375 599.042969 218.042969 602.089844 221.316406 605.058594 C 224.589844 608.023438 227.9375 610.910156 231.351562 613.710938 C 234.765625 616.515625 238.25 619.234375 241.796875 621.867188 C 245.347656 624.5 248.960938 627.042969 252.632812 629.496094 C 256.308594 631.953125 260.039062 634.316406 263.828125 636.585938 C 267.621094 638.859375 271.464844 641.035156 275.359375 643.117188 C 279.257812 645.203125 283.203125 647.1875 287.199219 649.078125 C 291.191406 650.964844 295.230469 652.757812 299.3125 654.449219 C 303.394531 656.136719 307.515625 657.726562 311.675781 659.21875 C 315.835938 660.707031 320.03125 662.089844 324.261719 663.375 C 328.488281 664.65625 332.746094 665.835938 337.03125 666.910156 C 341.320312 667.980469 345.628906 668.949219 349.964844 669.8125 C 354.296875 670.675781 358.648438 671.429688 363.019531 672.078125 C 367.390625 672.726562 371.773438 673.265625 376.171875 673.699219 C 380.570312 674.132812 384.976562 674.457031 389.390625 674.675781 C 393.800781 674.890625 398.21875 675 402.636719 675 C 407.054688 675 411.472656 674.890625 415.886719 674.675781 C 420.300781 674.457031 424.703125 674.132812 429.101562 673.699219 C 433.5 673.265625 437.882812 672.726562 442.253906 672.078125 C 446.625 671.429688 450.976562 670.675781 455.3125 669.8125 C 459.644531 668.949219 463.957031 667.980469 468.242188 666.910156 C 472.527344 665.835938 476.785156 664.65625 481.015625 663.375 C 485.242188 662.089844 489.4375 660.707031 493.597656 659.21875 C 497.757812 657.726562 501.878906 656.136719 505.960938 654.449219 C 510.042969 652.757812 514.082031 650.964844 518.078125 649.078125 C 522.070312 647.1875 526.019531 645.203125 529.914062 643.117188 C 533.8125 641.035156 537.65625 638.859375 541.445312 636.585938 C 545.234375 634.316406 548.96875 631.953125 552.640625 629.496094 C 556.316406 627.042969 559.925781 624.5 563.476562 621.867188 C 567.027344 619.234375 570.507812 616.515625 573.921875 613.710938 C 577.339844 610.910156 580.683594 608.023438 583.957031 605.058594 C 587.234375 602.089844 590.433594 599.042969 593.554688 595.917969 C 596.679688 592.792969 599.726562 589.59375 602.695312 586.320312 C 605.660156 583.046875 608.546875 579.703125 611.351562 576.285156 C 614.152344 572.871094 616.871094 569.386719 619.503906 565.839844 C 622.136719 562.289062 624.679688 558.679688 627.132812 555.003906 C 629.589844 551.328125 631.953125 547.597656 634.222656 543.808594 C 636.496094 540.015625 638.671875 536.175781 640.757812 532.277344 C 642.839844 528.378906 644.824219 524.433594 646.714844 520.441406 C 648.605469 516.445312 650.394531 512.40625 652.085938 508.324219 C 653.777344 504.242188 655.367188 500.121094 656.855469 495.960938 C 658.34375 491.800781 659.730469 487.605469 661.011719 483.375 C 662.292969 479.148438 663.472656 474.890625 664.546875 470.605469 C 665.621094 466.316406 666.585938 462.007812 667.449219 457.675781 C 668.3125 453.339844 669.066406 448.988281 669.714844 444.617188 C 670.363281 440.246094 670.902344 435.863281 671.335938 431.464844 C 671.769531 427.066406 672.09375 422.660156 672.3125 418.25 C 672.527344 413.835938 672.636719 409.417969 672.636719 405 C 672.636719 400.582031 672.527344 396.164062 672.3125 391.75 C 672.09375 387.339844 671.769531 382.933594 671.335938 378.535156 C 670.902344 374.136719 670.363281 369.753906 669.714844 365.382812 C 669.066406 361.011719 668.3125 356.660156 667.449219 352.324219 C 666.585938 347.992188 665.621094 343.679688 664.546875 339.394531 C 663.472656 335.109375 662.292969 330.851562 661.011719 326.625 C 659.730469 322.394531 658.34375 318.199219 656.855469 314.039062 C 655.367188 309.878906 653.777344 305.757812 652.085938 301.675781 C 650.394531 297.59375 648.605469 293.554688 646.714844 289.558594 C 644.824219 285.566406 642.839844 281.621094 640.757812 277.722656 C 638.671875 273.824219 636.496094 269.980469 634.222656 266.191406 C 631.953125 262.402344 629.589844 258.671875 627.132812 254.996094 C 624.679688 251.320312 622.136719 247.710938 619.503906 244.160156 C 616.871094 240.613281 614.152344 237.128906 611.351562 233.714844 C 608.546875 230.296875 605.660156 226.953125 602.695312 223.679688 C 599.726562 220.40625 596.679688 217.207031 593.554688 214.082031 C 590.433594 210.957031 587.234375 207.910156 583.957031 204.941406 C 580.683594 201.976562 577.339844 199.089844 573.921875 196.289062 C 570.507812 193.484375 567.027344 190.765625 563.476562 188.132812 C 559.925781 185.5 556.316406 182.957031 552.640625 180.503906 C 548.96875 178.046875 545.234375 175.683594 541.445312 173.414062 C 537.65625 171.140625 533.8125 168.964844 529.914062 166.882812 C 526.019531 164.796875 522.070312 162.8125 518.078125 160.921875 C 514.082031 159.035156 510.042969 157.242188 505.960938 155.550781 C 501.878906 153.863281 497.757812 152.273438 493.597656 150.78125 C 489.4375 149.292969 485.242188 147.910156 481.015625 146.625 C 476.785156 145.34375 472.527344 144.164062 468.242188 143.089844 C 463.957031 142.019531 459.644531 141.050781 455.3125 140.1875 C 450.976562 139.324219 446.625 138.570312 442.253906 137.921875 C 437.882812 137.273438 433.5 136.734375 429.101562 136.300781 C 424.703125 135.867188 420.300781 135.542969 415.886719 135.324219 C 411.472656 135.109375 407.054688 135 402.636719 135 Z M 402.636719 641.25 C 398.769531 641.25 394.90625 641.15625 391.046875 640.964844 C 387.183594 640.777344 383.328125 640.492188 379.480469 640.113281 C 375.632812 639.734375 371.796875 639.261719 367.972656 638.691406 C 364.148438 638.125 360.339844 637.464844 356.546875 636.710938 C 352.753906 635.957031 348.984375 635.109375 345.234375 634.167969 C 341.484375 633.230469 337.757812 632.199219 334.058594 631.078125 C 330.359375 629.953125 326.6875 628.742188 323.046875 627.441406 C 319.40625 626.136719 315.800781 624.746094 312.226562 623.265625 C 308.65625 621.785156 305.121094 620.21875 301.628906 618.566406 C 298.132812 616.914062 294.679688 615.175781 291.269531 613.355469 C 287.859375 611.53125 284.496094 609.625 281.179688 607.636719 C 277.863281 605.652344 274.597656 603.582031 271.382812 601.433594 C 268.167969 599.285156 265.007812 597.0625 261.902344 594.757812 C 258.796875 592.453125 255.75 590.078125 252.761719 587.625 C 249.773438 585.171875 246.847656 582.644531 243.980469 580.050781 C 241.117188 577.453125 238.316406 574.789062 235.582031 572.054688 C 232.847656 569.320312 230.183594 566.519531 227.585938 563.65625 C 224.992188 560.789062 222.464844 557.863281 220.015625 554.875 C 217.5625 551.886719 215.183594 548.839844 212.878906 545.734375 C 210.578125 542.628906 208.351562 539.46875 206.203125 536.253906 C 204.054688 533.039062 201.988281 529.773438 200 526.457031 C 198.011719 523.140625 196.105469 519.777344 194.285156 516.367188 C 192.460938 512.957031 190.722656 509.503906 189.070312 506.011719 C 187.417969 502.515625 185.851562 498.980469 184.371094 495.410156 C 182.890625 491.835938 181.5 488.230469 180.199219 484.589844 C 178.894531 480.949219 177.683594 477.28125 176.558594 473.578125 C 175.4375 469.878906 174.40625 466.15625 173.46875 462.402344 C 172.527344 458.652344 171.679688 454.882812 170.925781 451.089844 C 170.171875 447.296875 169.511719 443.488281 168.945312 439.664062 C 168.378906 435.839844 167.902344 432.003906 167.523438 428.15625 C 167.144531 424.308594 166.863281 420.453125 166.671875 416.59375 C 166.480469 412.730469 166.386719 408.867188 166.386719 405 C 166.386719 401.132812 166.480469 397.269531 166.671875 393.40625 C 166.863281 389.546875 167.144531 385.691406 167.523438 381.84375 C 167.902344 377.996094 168.378906 374.160156 168.945312 370.335938 C 169.511719 366.511719 170.171875 362.703125 170.925781 358.910156 C 171.679688 355.117188 172.527344 351.347656 173.46875 347.597656 C 174.40625 343.84375 175.4375 340.121094 176.558594 336.421875 C 177.683594 332.71875 178.894531 329.050781 180.199219 325.410156 C 181.5 321.769531 182.890625 318.164062 184.371094 314.589844 C 185.851562 311.019531 187.417969 307.484375 189.070312 303.988281 C 190.722656 300.496094 192.460938 297.042969 194.285156 293.632812 C 196.105469 290.222656 198.011719 286.859375 200 283.542969 C 201.988281 280.226562 204.054688 276.960938 206.203125 273.746094 C 208.351562 270.53125 210.578125 267.371094 212.878906 264.265625 C 215.183594 261.160156 217.5625 258.113281 220.015625 255.125 C 222.464844 252.136719 224.992188 249.210938 227.585938 246.34375 C 230.183594 243.480469 232.847656 240.679688 235.582031 237.945312 C 238.316406 235.210938 241.117188 232.546875 243.980469 229.949219 C 246.847656 227.355469 249.773438 224.828125 252.761719 222.375 C 255.75 219.921875 258.796875 217.546875 261.902344 215.242188 C 265.007812 212.9375 268.167969 210.714844 271.382812 208.566406 C 274.597656 206.417969 277.863281 204.347656 281.179688 202.363281 C 284.496094 200.375 287.859375 198.46875 291.269531 196.644531 C 294.679688 194.824219 298.132812 193.085938 301.628906 191.433594 C 305.121094 189.78125 308.65625 188.214844 312.230469 186.734375 C 315.800781 185.253906 319.40625 183.863281 323.046875 182.558594 C 326.6875 181.257812 330.359375 180.046875 334.058594 178.921875 C 337.757812 177.800781 341.484375 176.769531 345.234375 175.832031 C 348.984375 174.890625 352.753906 174.042969 356.546875 173.289062 C 360.339844 172.535156 364.148438 171.875 367.972656 171.308594 C 371.796875 170.738281 375.632812 170.265625 379.480469 169.886719 C 383.328125 169.507812 387.183594 169.222656 391.046875 169.035156 C 394.90625 168.84375 398.769531 168.75 402.636719 168.75 C 406.503906 168.75 410.367188 168.84375 414.230469 169.035156 C 418.089844 169.222656 421.945312 169.507812 425.792969 169.886719 C 429.640625 170.265625 433.476562 170.738281 437.300781 171.308594 C 441.128906 171.875 444.933594 172.535156 448.726562 173.289062 C 452.519531 174.042969 456.292969 174.890625 460.042969 175.832031 C 463.792969 176.769531 467.515625 177.800781 471.21875 178.921875 C 474.917969 180.046875 478.585938 181.257812 482.226562 182.558594 C 485.867188 183.863281 489.472656 185.253906 493.046875 186.734375 C 496.617188 188.214844 500.152344 189.78125 503.648438 191.433594 C 507.140625 193.085938 510.59375 194.824219 514.003906 196.644531 C 517.414062 198.46875 520.777344 200.375 524.09375 202.363281 C 527.410156 204.347656 530.675781 206.417969 533.890625 208.566406 C 537.105469 210.714844 540.265625 212.9375 543.371094 215.242188 C 546.476562 217.546875 549.523438 219.921875 552.511719 222.375 C 555.5 224.828125 558.429688 227.355469 561.292969 229.949219 C 564.15625 232.546875 566.957031 235.210938 569.691406 237.945312 C 572.425781 240.679688 575.089844 243.480469 577.6875 246.34375 C 580.285156 249.210938 582.808594 252.136719 585.261719 255.125 C 587.714844 258.113281 590.09375 261.160156 592.394531 264.265625 C 594.699219 267.371094 596.925781 270.53125 599.070312 273.746094 C 601.21875 276.960938 603.289062 280.226562 605.277344 283.542969 C 607.261719 286.859375 609.167969 290.222656 610.992188 293.632812 C 612.8125 297.042969 614.550781 300.496094 616.203125 303.988281 C 617.859375 307.484375 619.425781 311.019531 620.902344 314.589844 C 622.382812 318.164062 623.773438 321.769531 625.078125 325.410156 C 626.378906 329.050781 627.59375 332.71875 628.714844 336.421875 C 629.835938 340.121094 630.867188 343.84375 631.808594 347.597656 C 632.746094 351.347656 633.59375 355.117188 634.347656 358.910156 C 635.101562 362.703125 635.761719 366.511719 636.332031 370.335938 C 636.898438 374.160156 637.371094 377.996094 637.75 381.84375 C 638.128906 385.691406 638.414062 389.546875 638.601562 393.40625 C 638.792969 397.269531 638.886719 401.132812 638.886719 405 C 638.886719 408.867188 638.792969 412.730469 638.601562 416.59375 C 638.414062 420.453125 638.128906 424.308594 637.75 428.15625 C 637.371094 432.003906 636.898438 435.839844 636.332031 439.664062 C 635.761719 443.488281 635.101562 447.296875 634.347656 451.089844 C 633.59375 454.882812 632.746094 458.652344 631.808594 462.402344 C 630.867188 466.15625 629.835938 469.878906 628.714844 473.578125 C 627.59375 477.28125 626.378906 480.949219 625.078125 484.589844 C 623.773438 488.230469 622.382812 491.835938 620.902344 495.410156 C 619.425781 498.980469 617.859375 502.515625 616.203125 506.011719 C 614.550781 509.503906 612.8125 512.957031 610.992188 516.367188 C 609.167969 519.777344 607.261719 523.140625 605.277344 526.457031 C 603.289062 529.773438 601.21875 533.039062 599.070312 536.253906 C 596.925781 539.46875 594.699219 542.628906 592.394531 545.734375 C 590.09375 548.839844 587.714844 551.886719 585.261719 554.875 C 582.808594 557.863281 580.285156 560.789062 577.6875 563.65625 C 575.089844 566.519531 572.425781 569.320312 569.691406 572.054688 C 566.957031 574.789062 564.15625 577.453125 561.292969 580.050781 C 558.429688 582.644531 555.5 585.171875 552.511719 587.625 C 549.523438 590.078125 546.476562 592.453125 543.371094 594.757812 C 540.265625 597.0625 537.105469 599.285156 533.890625 601.433594 C 530.675781 603.582031 527.410156 605.652344 524.09375 607.636719 C 520.777344 609.625 517.414062 611.53125 514.003906 613.355469 C 510.59375 615.175781 507.140625 616.914062 503.648438 618.566406 C 500.152344 620.21875 496.617188 621.785156 493.046875 623.265625 C 489.472656 624.746094 485.867188 626.136719 482.226562 627.441406 C 478.585938 628.742188 474.917969 629.953125 471.21875 631.078125 C 467.515625 632.199219 463.792969 633.230469 460.042969 634.167969 C 456.292969 635.109375 452.519531 635.957031 448.726562 636.710938 C 444.933594 637.464844 441.128906 638.125 437.300781 638.691406 C 433.476562 639.261719 429.640625 639.734375 425.792969 640.113281 C 421.945312 640.492188 418.089844 640.777344 414.230469 640.964844 C 410.367188 641.15625 406.503906 641.25 402.636719 641.25 Z M 793.460938 440.4375 C 794.582031 439.246094 795.644531 438.003906 796.648438 436.710938 C 797.652344 435.421875 798.589844 434.085938 799.46875 432.703125 C 800.347656 431.324219 801.15625 429.90625 801.898438 428.449219 C 802.640625 426.992188 803.316406 425.503906 803.917969 423.980469 C 804.519531 422.460938 805.050781 420.914062 805.507812 419.34375 C 805.964844 417.773438 806.34375 416.1875 806.652344 414.578125 C 806.957031 412.972656 807.1875 411.355469 807.34375 409.726562 C 807.496094 408.097656 807.574219 406.46875 807.574219 404.832031 C 807.574219 403.195312 807.496094 401.5625 807.34375 399.933594 C 807.1875 398.308594 806.957031 396.691406 806.652344 395.082031 C 806.34375 393.476562 805.964844 391.886719 805.507812 390.316406 C 805.050781 388.746094 804.519531 387.203125 803.917969 385.679688 C 803.316406 384.160156 802.640625 382.671875 801.898438 381.214844 C 801.15625 379.757812 800.347656 378.339844 799.46875 376.957031 C 798.589844 375.578125 797.652344 374.242188 796.648438 372.949219 C 795.644531 371.65625 794.582031 370.417969 793.460938 369.226562 L 748.238281 321.976562 C 747.089844 320.957031 746.089844 319.8125 745.238281 318.539062 C 744.386719 317.265625 743.710938 315.902344 743.207031 314.457031 C 742.707031 313.007812 742.394531 311.519531 742.273438 309.992188 C 742.15625 308.464844 742.230469 306.945312 742.5 305.4375 L 757.6875 240.976562 C 758.066406 239.390625 758.367188 237.789062 758.59375 236.175781 C 758.816406 234.5625 758.96875 232.941406 759.039062 231.3125 C 759.113281 229.683594 759.105469 228.058594 759.023438 226.429688 C 758.941406 224.800781 758.785156 223.179688 758.550781 221.570312 C 758.3125 219.957031 758.003906 218.359375 757.617188 216.773438 C 757.230469 215.191406 756.769531 213.628906 756.234375 212.089844 C 755.699219 210.550781 755.09375 209.039062 754.417969 207.558594 C 753.742188 206.074219 752.996094 204.628906 752.179688 203.21875 C 751.367188 201.804688 750.488281 200.4375 749.542969 199.109375 C 748.597656 197.777344 747.59375 196.5 746.527344 195.265625 C 745.464844 194.03125 744.339844 192.851562 743.164062 191.726562 C 741.988281 190.597656 740.761719 189.527344 739.480469 188.519531 C 738.203125 187.507812 736.878906 186.558594 735.511719 185.671875 C 734.144531 184.789062 732.738281 183.96875 731.292969 183.214844 C 729.84375 182.464844 728.367188 181.78125 726.859375 181.167969 C 725.347656 180.558594 723.8125 180.015625 722.25 179.550781 L 658.800781 160.648438 C 657.359375 160.230469 655.992188 159.636719 654.699219 158.871094 C 653.410156 158.105469 652.230469 157.191406 651.171875 156.128906 C 650.109375 155.066406 649.195312 153.890625 648.429688 152.597656 C 647.664062 151.308594 647.070312 149.941406 646.648438 148.5 L 627.75 85.050781 C 627.28125 83.488281 626.742188 81.953125 626.132812 80.441406 C 625.519531 78.933594 624.835938 77.453125 624.082031 76.007812 C 623.332031 74.5625 622.511719 73.15625 621.625 71.789062 C 620.742188 70.421875 619.792969 69.097656 618.78125 67.820312 C 617.773438 66.539062 616.703125 65.3125 615.574219 64.136719 C 614.449219 62.957031 613.269531 61.835938 612.035156 60.773438 C 610.800781 59.707031 609.519531 58.703125 608.191406 57.757812 C 606.863281 56.8125 605.496094 55.933594 604.082031 55.121094 C 602.671875 54.304688 601.222656 53.558594 599.742188 52.882812 C 598.257812 52.203125 596.75 51.597656 595.210938 51.066406 C 593.667969 50.53125 592.109375 50.070312 590.523438 49.683594 C 588.941406 49.296875 587.34375 48.984375 585.730469 48.75 C 584.117188 48.515625 582.5 48.355469 580.871094 48.273438 C 579.242188 48.191406 577.617188 48.1875 575.988281 48.261719 C 574.359375 48.332031 572.738281 48.480469 571.125 48.707031 C 569.511719 48.933594 567.910156 49.234375 566.324219 49.613281 L 501.863281 64.800781 C 500.410156 65.152344 498.9375 65.324219 497.441406 65.308594 C 495.949219 65.292969 494.480469 65.09375 493.035156 64.710938 C 491.589844 64.328125 490.214844 63.773438 488.910156 63.046875 C 487.605469 62.316406 486.410156 61.441406 485.324219 60.414062 L 438.75 14.851562 C 437.5625 13.742188 436.320312 12.691406 435.035156 11.699219 C 433.746094 10.707031 432.414062 9.777344 431.039062 8.910156 C 429.664062 8.042969 428.25 7.242188 426.800781 6.503906 C 425.351562 5.769531 423.867188 5.105469 422.355469 4.511719 C 420.84375 3.914062 419.304688 3.390625 417.742188 2.9375 C 416.179688 2.488281 414.601562 2.109375 413.003906 1.808594 C 411.40625 1.503906 409.796875 1.277344 408.179688 1.125 C 406.5625 0.972656 404.9375 0.894531 403.3125 0.894531 C 401.6875 0.894531 400.0625 0.972656 398.445312 1.125 C 396.828125 1.277344 395.21875 1.503906 393.621094 1.808594 C 392.023438 2.109375 390.445312 2.488281 388.882812 2.9375 C 387.320312 3.390625 385.78125 3.914062 384.269531 4.511719 C 382.757812 5.105469 381.273438 5.769531 379.824219 6.503906 C 378.375 7.242188 376.960938 8.042969 375.585938 8.910156 C 374.210938 9.777344 372.878906 10.707031 371.589844 11.699219 C 370.304688 12.691406 369.0625 13.742188 367.875 14.851562 L 318.9375 60.414062 C 317.925781 61.335938 316.820312 62.132812 315.625 62.800781 C 314.425781 63.46875 313.171875 63.996094 311.855469 64.375 C 310.539062 64.753906 309.195312 64.980469 307.828125 65.054688 C 306.457031 65.125 305.097656 65.039062 303.75 64.800781 L 238.273438 49.613281 C 236.683594 49.222656 235.078125 48.910156 233.457031 48.675781 C 231.835938 48.4375 230.207031 48.277344 228.570312 48.199219 C 226.933594 48.117188 225.296875 48.113281 223.664062 48.1875 C 222.027344 48.261719 220.398438 48.414062 218.773438 48.644531 C 217.152344 48.871094 215.546875 49.179688 213.953125 49.5625 C 212.359375 49.941406 210.789062 50.398438 209.238281 50.933594 C 207.691406 51.464844 206.167969 52.070312 204.675781 52.746094 C 203.1875 53.421875 201.730469 54.167969 200.308594 54.984375 C 198.886719 55.796875 197.507812 56.679688 196.171875 57.625 C 194.835938 58.570312 193.546875 59.578125 192.304688 60.648438 C 191.0625 61.71875 189.875 62.84375 188.742188 64.027344 C 187.609375 65.207031 186.53125 66.441406 185.515625 67.726562 C 184.5 69.011719 183.546875 70.339844 182.65625 71.714844 C 181.765625 73.089844 180.945312 74.503906 180.1875 75.957031 C 179.433594 77.410156 178.746094 78.898438 178.132812 80.417969 C 177.519531 81.933594 176.980469 83.480469 176.511719 85.050781 L 157.613281 148.5 C 157.191406 149.941406 156.597656 151.308594 155.832031 152.597656 C 155.066406 153.890625 154.152344 155.066406 153.09375 156.128906 C 152.03125 157.191406 150.851562 158.105469 149.5625 158.871094 C 148.269531 159.636719 146.902344 160.230469 145.460938 160.648438 L 82.011719 179.550781 C 80.441406 180.015625 78.898438 180.558594 77.378906 181.171875 C 75.859375 181.785156 74.375 182.46875 72.921875 183.226562 C 71.46875 183.980469 70.054688 184.804688 68.679688 185.695312 C 67.300781 186.582031 65.972656 187.539062 64.6875 188.554688 C 63.402344 189.570312 62.171875 190.644531 60.988281 191.78125 C 59.804688 192.914062 58.679688 194.101562 57.613281 195.34375 C 56.542969 196.582031 55.535156 197.871094 54.589844 199.210938 C 53.640625 200.546875 52.761719 201.925781 51.945312 203.347656 C 51.128906 204.765625 50.382812 206.222656 49.707031 207.714844 C 49.03125 209.207031 48.425781 210.726562 47.894531 212.277344 C 47.363281 213.828125 46.90625 215.398438 46.523438 216.988281 C 46.140625 218.582031 45.835938 220.191406 45.605469 221.8125 C 45.375 223.433594 45.222656 225.0625 45.148438 226.699219 C 45.074219 228.335938 45.078125 229.972656 45.160156 231.609375 C 45.242188 233.246094 45.402344 234.875 45.636719 236.496094 C 45.875 238.113281 46.1875 239.722656 46.574219 241.3125 L 61.761719 305.773438 C 62.117188 307.226562 62.285156 308.699219 62.269531 310.195312 C 62.257812 311.6875 62.058594 313.15625 61.675781 314.601562 C 61.292969 316.046875 60.734375 317.421875 60.007812 318.726562 C 59.28125 320.03125 58.402344 321.226562 57.375 322.3125 L 11.8125 371.25 C 10.691406 372.441406 9.628906 373.683594 8.625 374.976562 C 7.625 376.265625 6.683594 377.601562 5.804688 378.984375 C 4.929688 380.363281 4.117188 381.78125 3.375 383.238281 C 2.632812 384.695312 1.960938 386.183594 1.355469 387.707031 C 0.753906 389.226562 0.226562 390.773438 -0.230469 392.34375 C -0.6875 393.914062 -1.070312 395.5 -1.378906 397.109375 C -1.683594 398.714844 -1.914062 400.332031 -2.070312 401.960938 C -2.222656 403.589844 -2.300781 405.21875 -2.300781 406.855469 C -2.300781 408.492188 -2.222656 410.125 -2.070312 411.753906 C -1.914062 413.378906 -1.683594 414.996094 -1.378906 416.605469 C -1.070312 418.210938 -0.6875 419.800781 -0.230469 421.371094 C 0.226562 422.941406 0.753906 424.484375 1.355469 426.007812 C 1.960938 427.527344 2.632812 429.015625 3.375 430.472656 C 4.117188 431.929688 4.929688 433.347656 5.804688 434.730469 C 6.683594 436.109375 7.625 437.445312 8.625 438.738281 C 9.628906 440.03125 10.691406 441.269531 11.8125 442.460938 L 57.375 489.710938 C 58.402344 490.796875 59.28125 491.992188 60.007812 493.296875 C 60.734375 494.601562 61.292969 495.976562 61.675781 497.421875 C 62.058594 498.867188 62.257812 500.335938 62.269531 501.832031 C 62.285156 503.324219 62.117188 504.796875 61.761719 506.25 L 46.574219 570.375 C 46.199219 571.960938 45.894531 573.558594 45.671875 575.175781 C 45.445312 576.789062 45.296875 578.410156 45.222656 580.039062 C 45.152344 581.664062 45.15625 583.292969 45.238281 584.921875 C 45.320312 586.546875 45.476562 588.167969 45.714844 589.78125 C 45.949219 591.394531 46.257812 592.992188 46.644531 594.574219 C 47.03125 596.15625 47.492188 597.71875 48.027344 599.257812 C 48.5625 600.796875 49.167969 602.308594 49.84375 603.792969 C 50.523438 605.273438 51.269531 606.722656 52.082031 608.132812 C 52.898438 609.542969 53.777344 610.914062 54.71875 612.242188 C 55.664062 613.570312 56.667969 614.851562 57.734375 616.085938 C 58.800781 617.316406 59.921875 618.5 61.097656 619.625 C 62.273438 620.753906 63.503906 621.820312 64.78125 622.832031 C 66.058594 623.84375 67.382812 624.792969 68.75 625.675781 C 70.117188 626.5625 71.527344 627.382812 72.972656 628.132812 C 74.417969 628.886719 75.894531 629.570312 77.40625 630.179688 C 78.914062 630.792969 80.449219 631.332031 82.011719 631.800781 L 145.460938 650.699219 C 146.902344 651.121094 148.269531 651.714844 149.5625 652.480469 C 150.851562 653.246094 152.03125 654.160156 153.09375 655.21875 C 154.152344 656.28125 155.066406 657.457031 155.832031 658.75 C 156.597656 660.042969 157.191406 661.410156 157.613281 662.851562 L 176.511719 726.300781 C 176.980469 727.859375 177.519531 729.398438 178.132812 730.90625 C 178.742188 732.417969 179.425781 733.894531 180.179688 735.339844 C 180.929688 736.785156 181.75 738.195312 182.636719 739.5625 C 183.519531 740.929688 184.46875 742.253906 185.480469 743.53125 C 186.492188 744.808594 187.558594 746.039062 188.6875 747.214844 C 189.8125 748.390625 190.996094 749.511719 192.226562 750.578125 C 193.460938 751.644531 194.742188 752.648438 196.070312 753.59375 C 197.398438 754.535156 198.769531 755.414062 200.179688 756.230469 C 201.589844 757.042969 203.039062 757.789062 204.519531 758.46875 C 206.003906 759.144531 207.515625 759.75 209.054688 760.285156 C 210.59375 760.820312 212.15625 761.28125 213.738281 761.667969 C 215.320312 762.054688 216.917969 762.363281 218.53125 762.597656 C 220.144531 762.835938 221.765625 762.992188 223.390625 763.074219 C 225.019531 763.15625 226.648438 763.160156 228.273438 763.089844 C 229.902344 763.015625 231.523438 762.867188 233.136719 762.640625 C 234.753906 762.417969 236.351562 762.113281 237.9375 761.738281 L 303.75 746.886719 C 305.203125 746.546875 306.675781 746.390625 308.164062 746.414062 C 309.65625 746.433594 311.125 746.636719 312.566406 747.019531 C 314.007812 747.402344 315.382812 747.953125 316.6875 748.671875 C 317.992188 749.394531 319.195312 750.261719 320.289062 751.273438 L 368.550781 796.835938 C 369.734375 797.957031 370.96875 799.015625 372.253906 800.015625 C 373.539062 801.015625 374.867188 801.953125 376.242188 802.828125 C 377.613281 803.703125 379.027344 804.511719 380.476562 805.253906 C 381.925781 805.996094 383.40625 806.667969 384.921875 807.269531 C 386.433594 807.871094 387.972656 808.398438 389.535156 808.855469 C 391.101562 809.308594 392.683594 809.691406 394.28125 809.996094 C 395.882812 810.300781 397.492188 810.53125 399.113281 810.6875 C 400.734375 810.839844 402.359375 810.917969 403.988281 810.917969 C 405.617188 810.917969 407.242188 810.839844 408.863281 810.6875 C 410.484375 810.53125 412.09375 810.300781 413.695312 809.996094 C 415.292969 809.691406 416.875 809.308594 418.4375 808.855469 C 420 808.398438 421.539062 807.871094 423.054688 807.269531 C 424.566406 806.667969 426.046875 805.996094 427.5 805.253906 C 428.949219 804.511719 430.359375 803.703125 431.734375 802.828125 C 433.105469 801.953125 434.4375 801.015625 435.722656 800.015625 C 437.003906 799.015625 438.242188 797.957031 439.425781 796.835938 L 487.6875 751.273438 C 488.773438 750.246094 489.96875 749.371094 491.273438 748.640625 C 492.578125 747.914062 493.953125 747.359375 495.398438 746.976562 C 496.84375 746.59375 498.3125 746.394531 499.804688 746.378906 C 501.300781 746.363281 502.773438 746.535156 504.226562 746.886719 L 568.6875 762.074219 C 570.273438 762.453125 571.871094 762.753906 573.488281 762.980469 C 575.101562 763.207031 576.722656 763.355469 578.351562 763.425781 C 579.976562 763.5 581.605469 763.496094 583.234375 763.414062 C 584.859375 763.332031 586.480469 763.171875 588.09375 762.9375 C 589.707031 762.703125 591.304688 762.390625 592.886719 762.003906 C 594.46875 761.617188 596.03125 761.15625 597.570312 760.621094 C 599.109375 760.089844 600.621094 759.484375 602.105469 758.804688 C 603.585938 758.128906 605.035156 757.382812 606.445312 756.566406 C 607.855469 755.753906 609.226562 754.875 610.554688 753.929688 C 611.882812 752.984375 613.164062 751.980469 614.398438 750.914062 C 615.628906 749.851562 616.8125 748.730469 617.9375 747.550781 C 619.066406 746.375 620.132812 745.148438 621.144531 743.867188 C 622.15625 742.589844 623.105469 741.265625 623.988281 739.898438 C 624.875 738.53125 625.695312 737.125 626.445312 735.679688 C 627.199219 734.234375 627.882812 732.753906 628.492188 731.246094 C 629.105469 729.734375 629.644531 728.199219 630.113281 726.636719 L 649.011719 663.1875 C 649.433594 661.746094 650.027344 660.378906 650.792969 659.089844 C 651.558594 657.796875 652.472656 656.621094 653.53125 655.558594 C 654.59375 654.496094 655.769531 653.582031 657.0625 652.816406 C 658.355469 652.050781 659.722656 651.457031 661.164062 651.039062 L 724.613281 632.136719 C 726.167969 631.660156 727.699219 631.113281 729.203125 630.496094 C 730.707031 629.875 732.179688 629.1875 733.621094 628.429688 C 735.058594 627.671875 736.460938 626.847656 737.824219 625.957031 C 739.1875 625.070312 740.503906 624.117188 741.777344 623.105469 C 743.050781 622.089844 744.273438 621.019531 745.445312 619.894531 C 746.617188 618.765625 747.734375 617.585938 748.796875 616.351562 C 749.859375 615.117188 750.859375 613.839844 751.800781 612.511719 C 752.742188 611.183594 753.621094 609.816406 754.433594 608.40625 C 755.246094 607 755.992188 605.554688 756.667969 604.074219 C 757.347656 602.59375 757.953125 601.085938 758.488281 599.550781 C 759.027344 598.015625 759.488281 596.457031 759.878906 594.875 C 760.265625 593.296875 760.582031 591.703125 760.820312 590.09375 C 761.0625 588.484375 761.226562 586.867188 761.3125 585.242188 C 761.402344 583.617188 761.414062 581.992188 761.347656 580.367188 C 761.28125 578.742188 761.140625 577.121094 760.925781 575.507812 C 760.707031 573.898438 760.417969 572.296875 760.050781 570.710938 L 742.5 506.25 C 742.144531 504.796875 741.976562 503.324219 741.992188 501.832031 C 742.007812 500.335938 742.203125 498.867188 742.589844 497.421875 C 742.972656 495.976562 743.527344 494.601562 744.253906 493.296875 C 744.984375 491.992188 745.859375 490.796875 746.886719 489.710938 Z M 710.773438 513 L 725.960938 577.460938 C 726.101562 578.019531 726.21875 578.585938 726.304688 579.152344 C 726.390625 579.722656 726.449219 580.292969 726.480469 580.871094 C 726.511719 581.445312 726.515625 582.019531 726.492188 582.59375 C 726.46875 583.167969 726.417969 583.742188 726.335938 584.3125 C 726.257812 584.882812 726.152344 585.449219 726.015625 586.007812 C 725.882812 586.566406 725.722656 587.121094 725.535156 587.664062 C 725.347656 588.207031 725.136719 588.742188 724.898438 589.265625 C 724.65625 589.789062 724.394531 590.300781 724.105469 590.800781 C 723.816406 591.296875 723.507812 591.78125 723.171875 592.25 C 722.835938 592.71875 722.480469 593.167969 722.101562 593.601562 C 721.722656 594.035156 721.324219 594.449219 720.90625 594.847656 C 720.488281 595.242188 720.050781 595.617188 719.597656 595.96875 C 719.144531 596.324219 718.671875 596.652344 718.1875 596.960938 C 717.699219 597.269531 717.199219 597.550781 716.6875 597.8125 C 716.171875 598.070312 715.648438 598.304688 715.109375 598.515625 C 714.574219 598.722656 714.027344 598.90625 713.476562 599.0625 L 650.023438 617.960938 C 648.050781 618.582031 646.121094 619.320312 644.234375 620.175781 C 642.347656 621.027344 640.523438 621.992188 638.75 623.066406 C 636.980469 624.140625 635.28125 625.3125 633.65625 626.59375 C 632.027344 627.871094 630.480469 629.242188 629.015625 630.703125 C 627.554688 632.167969 626.183594 633.714844 624.90625 635.34375 C 623.625 636.96875 622.453125 638.667969 621.378906 640.4375 C 620.304688 642.210938 619.339844 644.035156 618.488281 645.921875 C 617.632812 647.808594 616.898438 649.738281 616.273438 651.710938 L 597.375 715.164062 C 597.0625 716.253906 596.648438 717.308594 596.132812 718.324219 C 595.617188 719.335938 595.011719 720.292969 594.316406 721.191406 C 593.621094 722.089844 592.84375 722.914062 591.992188 723.664062 C 591.136719 724.417969 590.21875 725.078125 589.238281 725.65625 C 588.257812 726.230469 587.234375 726.710938 586.160156 727.089844 C 585.089844 727.46875 583.992188 727.746094 582.867188 727.914062 C 581.742188 728.085938 580.613281 728.148438 579.476562 728.105469 C 578.339844 728.058594 577.21875 727.910156 576.113281 727.648438 L 511.648438 712.460938 C 509.566406 711.964844 507.457031 711.597656 505.328125 711.363281 C 503.195312 711.128906 501.058594 711.027344 498.914062 711.058594 C 496.773438 711.089844 494.640625 711.253906 492.515625 711.550781 C 490.394531 711.847656 488.296875 712.273438 486.226562 712.832031 C 484.15625 713.390625 482.128906 714.074219 480.144531 714.882812 C 478.160156 715.695312 476.234375 716.625 474.367188 717.675781 C 472.496094 718.722656 470.703125 719.886719 468.976562 721.160156 C 467.253906 722.433594 465.613281 723.808594 464.0625 725.289062 L 415.125 772.199219 C 414.300781 772.980469 413.410156 773.679688 412.457031 774.292969 C 411.5 774.90625 410.492188 775.421875 409.4375 775.84375 C 408.382812 776.265625 407.296875 776.582031 406.183594 776.796875 C 405.066406 777.011719 403.941406 777.117188 402.804688 777.117188 C 401.671875 777.117188 400.542969 777.011719 399.429688 776.796875 C 398.3125 776.582031 397.230469 776.265625 396.175781 775.84375 C 395.121094 775.421875 394.113281 774.90625 393.15625 774.292969 C 392.199219 773.679688 391.3125 772.980469 390.488281 772.199219 L 342.226562 726.636719 C 340.671875 725.160156 339.035156 723.785156 337.308594 722.511719 C 335.585938 721.234375 333.789062 720.074219 331.921875 719.023438 C 330.050781 717.972656 328.125 717.042969 326.140625 716.234375 C 324.15625 715.421875 322.128906 714.738281 320.058594 714.179688 C 317.992188 713.625 315.894531 713.195312 313.769531 712.898438 C 311.648438 712.601562 309.515625 712.4375 307.371094 712.40625 C 305.230469 712.375 303.089844 712.480469 300.960938 712.714844 C 298.832031 712.949219 296.722656 713.316406 294.636719 713.8125 L 230.175781 729 C 229.617188 729.140625 229.054688 729.253906 228.484375 729.339844 C 227.914062 729.429688 227.34375 729.488281 226.769531 729.519531 C 226.195312 729.550781 225.617188 729.554688 225.042969 729.53125 C 224.46875 729.503906 223.894531 729.453125 223.324219 729.375 C 222.753906 729.296875 222.191406 729.1875 221.628906 729.054688 C 221.070312 728.921875 220.519531 728.761719 219.972656 728.574219 C 219.429688 728.386719 218.894531 728.171875 218.371094 727.933594 C 217.847656 727.695312 217.335938 727.433594 216.839844 727.144531 C 216.339844 726.855469 215.855469 726.542969 215.386719 726.210938 C 214.921875 725.875 214.46875 725.519531 214.035156 725.140625 C 213.601562 724.761719 213.1875 724.363281 212.792969 723.945312 C 212.394531 723.527344 212.019531 723.089844 211.667969 722.636719 C 211.316406 722.179688 210.984375 721.710938 210.675781 721.222656 C 210.367188 720.738281 210.085938 720.238281 209.824219 719.722656 C 209.566406 719.210938 209.332031 718.683594 209.121094 718.148438 C 208.914062 717.613281 208.730469 717.066406 208.574219 716.511719 L 189.675781 653.0625 C 189.054688 651.089844 188.316406 649.160156 187.460938 647.273438 C 186.609375 645.386719 185.644531 643.558594 184.570312 641.789062 C 183.5 640.019531 182.324219 638.320312 181.046875 636.691406 C 179.769531 635.0625 178.398438 633.519531 176.933594 632.054688 C 175.46875 630.589844 173.925781 629.21875 172.296875 627.941406 C 170.667969 626.664062 168.96875 625.488281 167.199219 624.414062 C 165.429688 623.34375 163.601562 622.378906 161.714844 621.523438 C 159.828125 620.671875 157.898438 619.933594 155.925781 619.3125 L 92.476562 600.414062 C 91.382812 600.097656 90.328125 599.683594 89.316406 599.171875 C 88.300781 598.65625 87.34375 598.050781 86.445312 597.355469 C 85.546875 596.65625 84.722656 595.882812 83.972656 595.027344 C 83.222656 594.175781 82.558594 593.257812 81.980469 592.277344 C 81.40625 591.296875 80.929688 590.269531 80.546875 589.199219 C 80.167969 588.128906 79.890625 587.03125 79.722656 585.90625 C 79.550781 584.78125 79.488281 583.652344 79.53125 582.515625 C 79.578125 581.378906 79.730469 580.257812 79.988281 579.148438 L 95.175781 514.6875 C 95.671875 512.601562 96.039062 510.496094 96.273438 508.363281 C 96.507812 506.234375 96.609375 504.097656 96.578125 501.953125 C 96.546875 499.808594 96.386719 497.675781 96.089844 495.554688 C 95.792969 493.429688 95.363281 491.335938 94.804688 489.265625 C 94.25 487.195312 93.566406 485.167969 92.753906 483.183594 C 91.945312 481.199219 91.015625 479.273438 89.964844 477.402344 C 88.914062 475.535156 87.75 473.738281 86.476562 472.015625 C 85.203125 470.292969 83.828125 468.652344 82.351562 467.101562 L 36.449219 418.164062 C 35.667969 417.339844 34.96875 416.449219 34.359375 415.492188 C 33.746094 414.535156 33.226562 413.53125 32.808594 412.476562 C 32.386719 411.421875 32.066406 410.335938 31.855469 409.21875 C 31.640625 408.105469 31.53125 406.980469 31.53125 405.84375 C 31.53125 404.707031 31.640625 403.582031 31.855469 402.46875 C 32.066406 401.351562 32.386719 400.265625 32.808594 399.210938 C 33.226562 398.15625 33.746094 397.152344 34.359375 396.195312 C 34.96875 395.238281 35.667969 394.347656 36.449219 393.523438 L 82.011719 345.261719 C 83.476562 343.703125 84.835938 342.054688 86.09375 340.328125 C 87.355469 338.597656 88.5 336.796875 89.535156 334.921875 C 90.570312 333.050781 91.484375 331.121094 92.28125 329.136719 C 93.074219 327.148438 93.746094 325.121094 94.289062 323.050781 C 94.832031 320.980469 95.242188 318.886719 95.527344 316.765625 C 95.808594 314.644531 95.960938 312.515625 95.976562 310.375 C 95.996094 308.238281 95.878906 306.105469 95.632812 303.980469 C 95.386719 301.855469 95.007812 299.753906 94.5 297.675781 L 79.3125 233.210938 C 79.054688 232.105469 78.902344 230.984375 78.859375 229.847656 C 78.8125 228.710938 78.875 227.582031 79.046875 226.457031 C 79.21875 225.332031 79.492188 224.234375 79.875 223.164062 C 80.253906 222.09375 80.730469 221.066406 81.308594 220.085938 C 81.882812 219.105469 82.546875 218.1875 83.296875 217.335938 C 84.046875 216.480469 84.871094 215.703125 85.769531 215.007812 C 86.667969 214.3125 87.625 213.707031 88.640625 213.191406 C 89.652344 212.675781 90.707031 212.261719 91.800781 211.949219 L 155.25 193.050781 C 157.222656 192.429688 159.15625 191.691406 161.039062 190.835938 C 162.925781 189.984375 164.753906 189.019531 166.523438 187.945312 C 168.292969 186.875 169.992188 185.699219 171.621094 184.421875 C 173.25 183.144531 174.792969 181.773438 176.257812 180.308594 C 177.722656 178.84375 179.09375 177.300781 180.371094 175.671875 C 181.648438 174.042969 182.824219 172.34375 183.898438 170.574219 C 184.96875 168.804688 185.933594 166.976562 186.789062 165.089844 C 187.640625 163.203125 188.378906 161.273438 189 159.300781 L 207.898438 95.851562 C 208.230469 94.75 208.664062 93.691406 209.195312 92.671875 C 209.726562 91.65625 210.347656 90.695312 211.0625 89.796875 C 211.773438 88.894531 212.566406 88.070312 213.433594 87.320312 C 214.300781 86.566406 215.234375 85.90625 216.226562 85.332031 C 217.222656 84.757812 218.261719 84.28125 219.347656 83.902344 C 220.429688 83.523438 221.539062 83.25 222.675781 83.082031 C 223.8125 82.914062 224.953125 82.851562 226.101562 82.898438 C 227.25 82.945312 228.382812 83.101562 229.5 83.363281 L 293.960938 98.550781 C 296.046875 99.046875 298.15625 99.414062 300.285156 99.648438 C 302.417969 99.882812 304.554688 99.984375 306.695312 99.953125 C 308.839844 99.921875 310.972656 99.761719 313.097656 99.464844 C 315.21875 99.167969 317.316406 98.738281 319.386719 98.179688 C 321.453125 97.625 323.480469 96.941406 325.464844 96.128906 C 327.449219 95.320312 329.378906 94.390625 331.246094 93.339844 C 333.113281 92.289062 334.910156 91.125 336.636719 89.851562 C 338.359375 88.578125 339.996094 87.203125 341.550781 85.726562 L 389.8125 40.164062 C 390.636719 39.378906 391.527344 38.683594 392.480469 38.070312 C 393.4375 37.457031 394.445312 36.941406 395.5 36.519531 C 396.554688 36.097656 397.640625 35.78125 398.753906 35.566406 C 399.871094 35.351562 400.996094 35.246094 402.132812 35.246094 C 403.265625 35.246094 404.394531 35.351562 405.507812 35.566406 C 406.625 35.78125 407.707031 36.097656 408.761719 36.519531 C 409.816406 36.941406 410.824219 37.457031 411.78125 38.070312 C 412.738281 38.683594 413.625 39.378906 414.449219 40.164062 L 462.710938 85.726562 C 464.265625 87.203125 465.902344 88.578125 467.628906 89.851562 C 469.351562 91.125 471.148438 92.289062 473.015625 93.339844 C 474.886719 94.390625 476.8125 95.320312 478.796875 96.128906 C 480.78125 96.941406 482.808594 97.625 484.878906 98.179688 C 486.945312 98.738281 489.042969 99.167969 491.167969 99.464844 C 493.289062 99.761719 495.421875 99.921875 497.566406 99.953125 C 499.710938 99.984375 501.847656 99.882812 503.976562 99.648438 C 506.105469 99.414062 508.214844 99.046875 510.300781 98.550781 L 573.75 82.351562 C 574.855469 82.089844 575.980469 81.941406 577.113281 81.894531 C 578.25 81.851562 579.382812 81.914062 580.503906 82.085938 C 581.628906 82.253906 582.726562 82.53125 583.796875 82.910156 C 584.871094 83.289062 585.894531 83.769531 586.875 84.34375 C 587.855469 84.921875 588.773438 85.582031 589.628906 86.335938 C 590.480469 87.085938 591.257812 87.910156 591.953125 88.808594 C 592.652344 89.707031 593.257812 90.664062 593.769531 91.675781 C 594.285156 92.691406 594.699219 93.746094 595.011719 94.835938 L 613.914062 158.289062 C 614.535156 160.261719 615.269531 162.191406 616.125 164.078125 C 616.980469 165.964844 617.941406 167.789062 619.015625 169.5625 C 620.089844 171.332031 621.265625 173.03125 622.542969 174.65625 C 623.820312 176.285156 625.191406 177.832031 626.652344 179.296875 C 628.117188 180.757812 629.664062 182.128906 631.292969 183.40625 C 632.921875 184.6875 634.621094 185.859375 636.390625 186.933594 C 638.160156 188.007812 639.988281 188.972656 641.871094 189.824219 C 643.757812 190.679688 645.6875 191.414062 647.664062 192.039062 L 711.113281 210.9375 C 712.207031 211.25 713.257812 211.664062 714.273438 212.179688 C 715.285156 212.695312 716.242188 213.300781 717.140625 213.996094 C 718.039062 214.691406 718.863281 215.46875 719.617188 216.320312 C 720.367188 217.175781 721.03125 218.09375 721.605469 219.074219 C 722.179688 220.054688 722.660156 221.078125 723.039062 222.152344 C 723.417969 223.222656 723.695312 224.320312 723.867188 225.445312 C 724.035156 226.570312 724.097656 227.699219 724.054688 228.835938 C 724.011719 229.972656 723.859375 231.09375 723.601562 232.199219 L 708.414062 296.664062 C 707.914062 298.746094 707.546875 300.855469 707.3125 302.984375 C 707.078125 305.117188 706.976562 307.253906 707.007812 309.398438 C 707.039062 311.539062 707.203125 313.671875 707.5 315.796875 C 707.796875 317.917969 708.222656 320.015625 708.78125 322.085938 C 709.339844 324.15625 710.023438 326.183594 710.832031 328.167969 C 711.644531 330.152344 712.574219 332.078125 713.625 333.945312 C 714.675781 335.816406 715.835938 337.609375 717.109375 339.335938 C 718.382812 341.058594 719.757812 342.699219 721.238281 344.25 L 766.800781 392.511719 C 767.582031 393.335938 768.28125 394.226562 768.890625 395.183594 C 769.503906 396.140625 770.023438 397.144531 770.441406 398.199219 C 770.863281 399.253906 771.183594 400.339844 771.394531 401.453125 C 771.609375 402.570312 771.71875 403.695312 771.71875 404.832031 C 771.71875 405.96875 771.609375 407.09375 771.394531 408.207031 C 771.183594 409.324219 770.863281 410.410156 770.441406 411.464844 C 770.023438 412.519531 769.503906 413.523438 768.890625 414.480469 C 768.28125 415.4375 767.582031 416.328125 766.800781 417.148438 L 721.238281 465.414062 C 719.820312 467.046875 718.511719 468.765625 717.308594 470.566406 C 716.105469 472.363281 715.023438 474.230469 714.054688 476.167969 C 713.089844 478.105469 712.246094 480.09375 711.53125 482.132812 C 710.8125 484.175781 710.226562 486.253906 709.773438 488.371094 C 709.316406 490.484375 708.996094 492.621094 708.808594 494.777344 C 708.621094 496.933594 708.570312 499.09375 708.65625 501.253906 C 708.738281 503.417969 708.960938 505.566406 709.3125 507.699219 C 709.667969 509.835938 710.15625 511.9375 710.773438 514.011719 Z M 710.773438 513"/></svg>